<?xml version="1.0" encoding="UTF-8"?>
<svg version="1.1" viewBox="0 0 125 50" xml:space="preserve" xmlns="http://www.w3.org/2000/svg"><path class="navbar-logo__green" d="m41.911 1.9168h-35.17c-3.0254 0-5.4981 2.4727-5.4981 5.4981v35.17c0 3.0254 2.4727 5.4981 5.4981 5.4981h35.17c3.0254 0 5.4981-2.4727 5.4981-5.4981v-35.17c-0.007274-3.0254-2.48-5.4981-5.4981-5.4981z" fill="#03c03c" stroke-width=".072726"/>
  <g transform="matrix(1.2404 0 0 1.2404 .48056 .19222)" stroke-width=".058632"><path d="m52.486 30.354c-0.32834 0.36352-0.69185 0.68013-1.0964 0.94397-0.40456 0.26384-0.86188 0.46905-1.3778 0.60977-0.5101 0.14072-1.0964 0.21107-1.7472 0.21107-0.70944 0-1.4072-0.10554-2.0931-0.31075-0.68599-0.21107-1.2958-0.52768-1.8293-0.96156-0.53355-0.43387-0.96742-0.99087-1.2899-1.671-0.32834-0.68013-0.4925-1.4951-0.4925-2.4391 0-0.92052 0.16417-1.7238 0.49837-2.398 0.3342-0.67426 0.76807-1.2371 1.3075-1.6769 0.53941-0.4456 1.1492-0.77394 1.8293-0.98501 0.68013-0.21107 1.372-0.32247 2.0697-0.32247 0.55114 0 1.0495 0.05277 1.501 0.15244 0.45146 0.09967 0.86775 0.25798 1.2606 0.46319 0.38697 0.21107 0.75635 0.48078 1.1081 0.80912 0.34593 0.3342 0.69772 0.72703 1.0495 1.1902l-1.501 0.87948c-0.23453-0.32834-0.46905-0.60391-0.69772-0.83257-0.22866-0.22866-0.48078-0.42215-0.74462-0.56286-0.26384-0.14658-0.557-0.25212-0.86775-0.32247-0.31661-0.06449-0.68013-0.09967-1.0964-0.09967-0.51596 0-1.0143 0.07622-1.4951 0.22866-0.48078 0.15244-0.90293 0.3811-1.2723 0.69185-0.36938 0.31075-0.6684 0.69772-0.88534 1.1668s-0.32834 1.0085-0.32834 1.63c0 0.65081 0.1114 1.2137 0.32834 1.6769 0.21694 0.46905 0.5101 0.85016 0.87947 1.155 0.36352 0.30488 0.78566 0.52768 1.2664 0.6684s0.97915 0.21107 1.5127 0.21107c0.46319 0 0.86775-0.04691 1.2254-0.13485 0.35765-0.08795 0.6684-0.2228 0.94397-0.40456s0.52768-0.40456 0.76221-0.6684c0.22866-0.26384 0.45146-0.56286 0.6684-0.90293l1.5537 0.77394c-0.31661 0.45146-0.62736 0.86775-0.94983 1.2313z"/>
    <path
      d="m62.43 24.304c-0.18176-0.19348-0.32834-0.34593-0.4456-0.46319s-0.21694-0.21107-0.30488-0.28143c-0.08208-0.07036-0.15244-0.11726-0.19935-0.15244-0.05277-0.03518-0.09967-0.05863-0.14072-0.08208-0.12313-0.05863-0.26384-0.09967-0.42215-0.13485s-0.35765-0.05277-0.59218-0.05277c-0.24625 0-0.51596 0.02345-0.80325 0.07622s-0.6215 0.15244-0.97915 0.29316c-0.35765 0.12899-0.46905 0.17589-0.75048 0.29316-0.25798 0.10554-0.50423 0.20521-0.79153 0.3987v7.8332h-1.7238v-10.36h1.7238v0.86188c0.14658-0.08795 0.29316-0.1759 0.43974-0.26384 0.14658-0.08208 0.29902-0.15831 0.45733-0.22866 0.35765-0.17003 0.73876-0.30488 1.1375-0.41628 0.3987-0.10554 0.83257-0.1583 1.2899-0.1583 0.28143 0 0.56873 0.02345 0.86188 0.06449 0.29316 0.04691 0.58632 0.13485 0.87947 0.26971 0.21107 0.08795 0.42215 0.21694 0.63322 0.3811 0.21107 0.16417 0.51596 0.41628 0.92052 0.76807z"/>
    <path
      d="m74.455 28.724c-0.22866 0.63908-0.58045 1.2137-1.0554 1.7238-0.47492 0.50423-1.0671 0.90879-1.7883 1.2137-0.72117 0.30488-1.5713 0.45733-2.5505 0.45733-0.9557 0-1.7941-0.14658-2.5153-0.43974s-1.3192-0.68599-1.8-1.1785c-0.48078-0.49251-0.83843-1.0671-1.0788-1.712-0.24039-0.64495-0.36352-1.3309-0.36352-2.0521 0-0.85602 0.15244-1.6182 0.46319-2.2866s0.72703-1.2313 1.2489-1.6886c0.52182-0.45733 1.1316-0.80325 1.8293-1.0495 0.69772-0.24039 1.4365-0.36352 2.2104-0.36352s1.5127 0.12313 2.2104 0.36352c0.69772 0.24039 1.3075 0.59218 1.8293 1.0554 0.52182 0.46319 0.93811 1.0261 1.243 1.6945 0.30488 0.6684 0.45733 1.4306 0.45733 2.2866 0.0059 0.68013-0.1114 1.3368-0.34006 1.9759zm-1.671-3.5238c-0.19935-0.46319-0.47492-0.85016-0.82671-1.1726s-0.7798-0.56286-1.2723-0.7329c-0.49251-0.17003-1.0378-0.25212-1.6182-0.25212-0.59804 0-1.1375 0.08208-1.63 0.25212-0.48664 0.17003-0.91465 0.41628-1.2723 0.7329-0.35765 0.32247-0.63908 0.70944-0.83257 1.1726-0.19935 0.46319-0.29316 0.97915-0.29316 1.5537 0 0.48664 0.07622 0.94983 0.23453 1.4013 0.15831 0.45146 0.40456 0.8443 0.7329 1.1902 0.3342 0.34593 0.75635 0.61563 1.2664 0.82084 0.5101 0.19935 1.114 0.30488 1.8176 0.30488 0.68599 0 1.2782-0.09967 1.7824-0.30488 0.49837-0.20521 0.91465-0.47492 1.2489-0.82084 0.3342-0.34593 0.57459-0.73876 0.7329-1.1902 0.1583-0.45146 0.23453-0.91465 0.23453-1.4013-0.01173-0.57459-0.1114-1.0964-0.30488-1.5537z"/>
    <path
      d="m84.997 32.031v-7.0006c0-0.30488-0.02932-0.56286-0.08208-0.78566-0.05863-0.21694-0.16417-0.41042-0.32247-0.56286-0.13485-0.13485-0.3342-0.25798-0.59218-0.36938s-0.63908-0.17003-1.1316-0.17003c-0.57459 0-1.2313 0.13485-1.9759 0.40456-0.14658 0.05863-0.31075 0.12899-0.4925 0.21107-0.18176 0.08208-0.35765 0.18176-0.53941 0.28729-0.18176 0.10554-0.35765 0.21694-0.53355 0.32834s-0.3342 0.2228-0.48078 0.34006v7.3172h-1.7238v-10.36h1.7414c0 0.01173-0.0059 0.07036-0.01173 0.18762-0.0059 0.1114-0.01173 0.25212-0.01759 0.42215-0.0059 0.17003-0.0059 0.32247-0.0059 0.45733 0.25798-0.15831 0.5101-0.29902 0.75048-0.42215 0.24039-0.12313 0.49251-0.23453 0.75048-0.34006 0.45146-0.18176 0.88534-0.31075 1.3075-0.38697 0.42215-0.07622 0.83843-0.11726 1.2606-0.11726 0.60977 0 1.1609 0.08208 1.6534 0.25212 0.4925 0.17003 0.91465 0.43387 1.2489 0.79153 0.31661 0.32834 0.54527 0.69185 0.69185 1.0905s0.21694 0.86775 0.21694 1.4072v7.0182z"/>
    <path
      d="m97.673 32.031v-7.0006c0-0.30488-0.02932-0.56286-0.08208-0.78566-0.05863-0.21694-0.16417-0.41042-0.32247-0.56286-0.13485-0.13485-0.3342-0.25798-0.59218-0.36938s-0.63908-0.17003-1.1316-0.17003c-0.57459 0-1.2313 0.13485-1.9759 0.40456-0.14658 0.05863-0.31075 0.12899-0.4925 0.21107-0.18176 0.08208-0.35765 0.18176-0.53941 0.28729-0.18176 0.10554-0.35765 0.21694-0.53355 0.32834-0.17589 0.1114-0.3342 0.2228-0.48078 0.34006v7.3172h-1.7238v-10.36h1.7414c0 0.01173-0.0059 0.07036-0.01173 0.18762-0.0059 0.1114-0.01173 0.25212-0.01759 0.42215-0.0059 0.17003-0.0059 0.32247-0.0059 0.45733 0.25798-0.15831 0.5101-0.29902 0.75048-0.42215 0.24039-0.12313 0.49251-0.23453 0.75048-0.34006 0.45146-0.18176 0.88534-0.31075 1.3075-0.38697 0.42215-0.07622 0.83843-0.11726 1.2606-0.11726 0.60977 0 1.1609 0.08208 1.6534 0.25212 0.4925 0.17003 0.91465 0.43387 1.2489 0.79153 0.31661 0.32834 0.54527 0.69185 0.69185 1.0905s0.21694 0.86775 0.21694 1.4072v7.0182z"/></g>
  <g fill="#f9f9f9" stroke-width=".072726"><path d="m23.046 40.032h-2.1891v-8.9235c0-0.38545-0.03637-0.71998-0.10909-0.99634s-0.21091-0.51636-0.40726-0.71999c-0.17454-0.17454-0.42181-0.32726-0.74908-0.47272-0.32727-0.14545-0.80726-0.21818-1.44-0.21818-0.72726 0-1.5709 0.17454-2.5163 0.51635-0.18909 0.07272-0.39272 0.16-0.62544 0.26909s-0.45817 0.23272-0.6909 0.36363c-0.23272 0.13818-0.45817 0.27636-0.67635 0.42181-0.22545 0.14545-0.42908 0.28363-0.6109 0.42908v9.3307h-2.189v-13.2h2.2109c0 0.01454-0.0073 0.09454-0.0073 0.24-0.0073 0.14545-0.01455 0.31999-0.02182 0.53817-0.0073 0.21818-0.0073 0.40727-0.0073 0.58181 0.32727-0.19636 0.64726-0.37818 0.95998-0.53817 0.30545-0.16 0.62544-0.29818 0.95998-0.42908 0.57454-0.23272 1.1273-0.39272 1.6654-0.49454 0.53817-0.10181 1.0691-0.15272 1.6-0.15272 0.7709 0 1.4763 0.10909 2.1091 0.31999 0.63272 0.21818 1.1636 0.55272 1.5927 1.0109 0.39999 0.41454 0.69817 0.87998 0.87998 1.3891 0.18909 0.50908 0.27636 1.1054 0.27636 1.7963v8.938z"/>
    <path
      d="m23.279 21.895c-0.42908 0.47999-0.90908 0.89453-1.44 1.2436-0.5309 0.34908-1.1345 0.6109-1.8036 0.79999-0.66908 0.18182-1.4327 0.27636-2.2909 0.27636-0.93089 0-1.8472-0.13818-2.749-0.40727-0.9018-0.27636-1.7018-0.6909-2.4-1.2654-0.69817-0.56726-1.2654-1.3018-1.6945-2.1963-0.42908-0.89453-0.63999-1.9636-0.63999-3.1999 0-1.2073 0.21818-2.2618 0.65453-3.1418 0.43636-0.88726 1.0109-1.6218 1.7163-2.2036 0.70544-0.58181 1.5127-1.0182 2.4-1.2945 0.89453-0.28363 1.7963-0.42181 2.7127-0.42181 0.71999 0 1.3818 0.06545 1.9709 0.19636 0.58908 0.13091 1.1418 0.33454 1.6509 0.6109 0.50908 0.27636 0.98907 0.62544 1.4472 1.0618 0.45818 0.43636 0.91635 0.95271 1.3745 1.5636l-1.9709 1.1491c-0.31272-0.42908-0.61817-0.79271-0.91635-1.0982-0.30545-0.30545-0.62544-0.55272-0.97453-0.74181-0.34908-0.18909-0.72726-0.33454-1.1418-0.42181s-0.89453-0.13091-1.44-0.13091c-0.67635 0-1.3309 0.10182-1.9636 0.29818-0.62544 0.19636-1.1854 0.50181-1.6727 0.90908-0.48726 0.40727-0.87271 0.91635-1.1636 1.5272-0.2909 0.6109-0.42908 1.3236-0.42908 2.1381 0 0.85817 0.14545 1.5927 0.42908 2.2036 0.2909 0.6109 0.66908 1.12 1.1491 1.52 0.47999 0.4 1.0327 0.6909 1.6582 0.87271 0.62544 0.18182 1.2873 0.27636 1.9854 0.27636 0.60363 0 1.1418-0.05817 1.6072-0.17454 0.46544-0.11636 0.87998-0.29818 1.2436-0.5309 0.36363-0.23272 0.6909-0.5309 0.99634-0.87271 0.30545-0.34909 0.59635-0.74181 0.87271-1.1854l2.0363 1.0182c-0.37818 0.60363-0.78544 1.1418-1.2145 1.6218z"/>
    <path
      d="m37.897 40.032h-2.1891v-8.9235c0-0.38545-0.03637-0.71998-0.10909-0.99634s-0.21091-0.51636-0.40727-0.71999c-0.17454-0.17454-0.42181-0.32726-0.74908-0.47272-0.32727-0.14545-0.80726-0.21818-1.44-0.21818-0.72726 0-1.5709 0.17454-2.5163 0.51635-0.18909 0.07272-0.39272 0.16-0.62544 0.26909-0.23273 0.10909-0.45818 0.23272-0.6909 0.36363-0.23272 0.13818-0.45817 0.27636-0.67635 0.42181-0.22545 0.14545-0.42908 0.28363-0.6109 0.42908v9.3307h-2.1891v-13.2h2.2109c0 0.01454-0.0073 0.09454-0.0073 0.24-0.0073 0.14545-0.01454 0.31999-0.02182 0.53817-0.0073 0.21818-0.0073 0.40727-0.0073 0.58181 0.32727-0.19636 0.64726-0.37818 0.95998-0.53817 0.30545-0.16 0.62544-0.29818 0.95998-0.42908 0.57453-0.23272 1.1273-0.39272 1.6654-0.49454 0.53818-0.10181 1.0691-0.15272 1.6-0.15272 0.7709 0 1.4763 0.10909 2.1091 0.31999 0.63272 0.21818 1.1636 0.55272 1.5927 1.0109 0.39999 0.41454 0.69817 0.87998 0.87998 1.3891 0.18909 0.50908 0.27636 1.1054 0.27636 1.7963v8.938z"/>
    <path
      d="m36.66 14.091c-0.23272-0.24-0.42181-0.44363-0.56726-0.58908-0.14546-0.14545-0.27636-0.26909-0.38545-0.35636s-0.19636-0.15272-0.25454-0.19636c-0.06546-0.04364-0.12363-0.08-0.18182-0.10909-0.16-0.07272-0.33454-0.13091-0.53817-0.17454-0.20364-0.04364-0.4509-0.06546-0.74908-0.06546-0.31272 0-0.65453 0.02909-1.0182 0.09454-0.36363 0.06546-0.71272 0.18182-1.2073 0.3709-0.38545 0.15272-0.61817 0.22545-0.99635 0.38545-0.32727 0.13818-0.65453 0.26909-1.0109 0.50908v9.9707h-2.1891v-13.2h2.1745v1.0982c0.18909-0.11636 0.37091-0.22545 0.55999-0.33454 0.18909-0.10909 0.37818-0.20363 0.58181-0.2909 0.45817-0.21818 0.94544-0.39272 1.4545-0.52363 0.50908-0.13818 1.0545-0.20363 1.6436-0.20363 0.35636 0 0.72726 0.02909 1.0982 0.08727 0.3709 0.05818 0.7418 0.17454 1.12 0.34181 0.26909 0.11636 0.53817 0.27636 0.80726 0.47999 0.26181 0.2109 0.65453 0.5309 1.1709 0.9818z"/></g></svg>
